<svg width="851" height="84" viewBox="0 0 851 84" fill="none" xmlns="http://www.w3.org/2000/svg">
<g clip-path="url(#clip0_1644_53)">
<path d="M0.490078 11.0601L63.3301 11.0601V1.50006L0.490078 1.50006V11.0601Z" fill="#161616"/>
<path d="M63.7098 51.8701C63.7098 53.5601 63.5798 55.2101 63.3298 56.8301H10.1198C12.3698 66.7601 21.2498 74.1701 31.8598 74.1701C37.3598 74.1701 42.3998 72.1701 46.2998 68.8501L49.2898 71.8401L53.0498 75.6601C47.4198 80.6801 39.9998 83.7301 31.8698 83.7301C14.2798 83.7301 0.00976562 69.4601 0.00976562 51.8701C0.00976562 35.9001 11.7598 22.6801 27.0898 20.3701V30.0901C18.5598 31.9501 11.8698 38.7101 10.0698 47.2601H53.6698C51.8698 38.7101 45.1798 31.9501 36.6498 30.0901V20.3701C51.9698 22.6801 63.7198 35.9001 63.7198 51.8701H63.7098Z" fill="#161616"/>
<path d="M121.31 72.4398V83.7298H63.8203V76.4298C63.8203 71.8298 65.0603 65.8098 86.5303 51.6398C108.43 37.1898 108.5 30.5198 108.4 25.6898C108.3 20.8598 106.31 12.1798 92.5603 12.1798C78.8103 12.1798 76.5403 21.7498 76.5403 25.3998H65.8903C65.8903 25.3998 64.2103 1.50977 92.2203 1.50977C120.23 1.50977 119.15 23.9198 119.15 26.4898C119.15 29.0598 120.04 40.3998 102.48 52.6298C84.9203 64.8598 78.6103 71.1698 78.6103 72.6498L121.31 72.4498V72.4398Z" fill="#161616"/>
<path d="M207.26 23.9802V82.2302H199.87V72.2202C196.73 76.0402 193.21 78.9102 189.3 80.8402C185.39 82.7602 181.12 83.7302 176.48 83.7302C168.23 83.7302 161.19 80.7402 155.35 74.7602C149.52 68.7802 146.6 61.5102 146.6 52.9502C146.6 44.3902 149.55 37.3902 155.43 31.4302C161.32 25.4702 168.41 22.4902 176.68 22.4902C181.47 22.4902 185.79 23.5102 189.66 25.5402C193.54 27.5802 196.93 30.6302 199.86 34.6902V23.9902H207.25L207.26 23.9802ZM177.31 29.7102C173.14 29.7102 169.29 30.7302 165.76 32.7802C162.23 34.8302 159.42 37.7102 157.34 41.4102C155.25 45.1202 154.21 49.0402 154.21 53.1702C154.21 57.3002 155.26 61.1902 157.36 64.9402C159.46 68.6802 162.29 71.5902 165.83 73.6802C169.38 75.7602 173.18 76.8102 177.25 76.8102C181.32 76.8102 185.23 75.7702 188.9 73.7102C192.57 71.6402 195.4 68.8402 197.38 65.3102C199.36 61.7802 200.35 57.8102 200.35 53.3902C200.35 46.6602 198.13 41.0202 193.69 36.4902C189.25 31.9702 183.79 29.7002 177.3 29.7002L177.31 29.7102Z" fill="#161616"/>
<path d="M226.76 23.98H234.42V32.49C236.71 29.13 239.11 26.63 241.65 24.97C244.19 23.31 246.83 22.48 249.57 22.48C251.64 22.48 253.86 23.14 256.21 24.46L252.31 30.78C250.73 30.11 249.42 29.77 248.35 29.77C245.85 29.77 243.44 30.79 241.12 32.84C238.79 34.9 237.03 38.08 235.82 42.4C234.9 45.72 234.43 52.43 234.43 62.53V82.23H226.77V23.98H226.76Z" fill="#161616"/>
<path d="M324.6 36.0802L318.65 39.7702C313.52 32.9602 306.52 29.5402 297.64 29.5402C290.54 29.5402 284.65 31.8202 279.97 36.3802C275.28 40.9402 272.94 46.4902 272.94 53.0202C272.94 57.2602 274.02 61.2502 276.18 65.0002C278.34 68.7402 281.3 71.6502 285.06 73.7202C288.81 75.7802 293.03 76.8202 297.71 76.8202C306.26 76.8202 313.25 73.4102 318.67 66.5902L324.62 70.5002C321.84 74.6902 318.09 77.9402 313.4 80.2502C308.71 82.5602 303.36 83.7102 297.36 83.7102C288.15 83.7102 280.51 80.7802 274.45 74.9302C268.38 69.0802 265.35 61.9502 265.35 53.5702C265.35 47.9302 266.77 42.6902 269.6 37.8602C272.44 33.0202 276.34 29.2502 281.3 26.5402C286.26 23.8302 291.81 22.4702 297.95 22.4702C301.81 22.4702 305.53 23.0602 309.11 24.2402C312.7 25.4102 315.74 26.9502 318.24 28.8402C320.73 30.7302 322.86 33.1402 324.61 36.0702L324.6 36.0802Z" fill="#161616"/>
<path d="M344.48 1.5H351.98V34.43C355.01 30.43 358.35 27.44 361.99 25.46C365.63 23.48 369.57 22.49 373.82 22.49C378.07 22.49 382.04 23.6 385.41 25.81C388.78 28.02 391.27 30.99 392.88 34.72C394.48 38.45 395.29 44.3 395.29 52.25V82.23H387.79V54.44C387.79 47.73 387.53 43.25 386.99 41C386.06 37.15 384.37 34.25 381.93 32.3C379.48 30.35 376.28 29.38 372.32 29.38C367.78 29.38 363.73 30.88 360.14 33.88C356.55 36.88 354.19 40.59 353.05 45.02C352.34 47.88 351.98 53.16 351.98 60.87V82.23H344.48V1.5Z" fill="#161616"/>
<path d="M419.431 0C421.141 0 422.591 0.61 423.801 1.82C425.011 3.03 425.611 4.5 425.611 6.21C425.611 7.92 425.001 9.33 423.801 10.54C422.591 11.75 421.131 12.36 419.431 12.36C417.731 12.36 416.321 11.75 415.121 10.54C413.911 9.33 413.311 7.88 413.311 6.21C413.311 4.54 413.911 3.04 415.121 1.82C416.331 0.61 417.761 0 419.431 0ZM415.711 23.98H423.211V82.23H415.711V23.98Z" fill="#161616"/>
<path d="M450.8 2.3501H458.3V23.9801H470.18V30.4601H458.3V82.2301H450.8V30.4601H440.57V23.9801H450.8V2.3501Z" fill="#161616"/>
<path d="M535.94 62.9L542.26 66.22C540.19 70.29 537.8 73.57 535.08 76.07C532.36 78.56 529.31 80.46 525.92 81.77C522.52 83.08 518.68 83.72 514.39 83.72C504.89 83.72 497.46 80.61 492.11 74.38C486.75 68.16 484.07 61.11 484.07 53.26C484.07 45.87 486.33 39.29 490.88 33.51C496.63 26.16 504.33 22.48 513.97 22.48C523.61 22.48 531.83 26.25 537.76 33.78C541.98 39.1 544.12 45.74 544.19 53.7H491.78C491.92 60.46 494.09 66.01 498.26 70.34C502.43 74.67 507.6 76.83 513.75 76.83C516.72 76.83 519.6 76.31 522.41 75.28C525.22 74.25 527.6 72.88 529.57 71.17C531.53 69.46 533.66 66.71 535.95 62.91L535.94 62.9ZM535.94 47.22C534.94 43.22 533.49 40.03 531.57 37.63C529.65 35.23 527.13 33.32 523.99 31.85C520.84 30.39 517.54 29.66 514.07 29.66C508.35 29.66 503.43 31.49 499.33 35.17C496.32 37.85 494.06 41.86 492.52 47.22H535.94Z" fill="#161616"/>
<path d="M620.17 36.0802L614.22 39.7702C609.09 32.9602 602.09 29.5402 593.21 29.5402C586.11 29.5402 580.22 31.8202 575.54 36.3802C570.85 40.9402 568.51 46.4902 568.51 53.0202C568.51 57.2602 569.59 61.2502 571.75 65.0002C573.91 68.7402 576.87 71.6502 580.63 73.7202C584.38 75.7802 588.6 76.8202 593.28 76.8202C601.83 76.8202 608.82 73.4102 614.24 66.5902L620.19 70.5002C617.41 74.6902 613.66 77.9402 608.97 80.2502C604.28 82.5602 598.93 83.7102 592.93 83.7102C583.72 83.7102 576.08 80.7802 570.02 74.9302C563.96 69.0802 560.92 61.9502 560.92 53.5702C560.92 47.9302 562.34 42.6902 565.17 37.8602C568.01 33.0202 571.91 29.2502 576.87 26.5402C581.83 23.8302 587.38 22.4702 593.52 22.4702C597.38 22.4702 601.1 23.0602 604.68 24.2402C608.27 25.4102 611.31 26.9502 613.81 28.8402C616.3 30.7302 618.43 33.1402 620.18 36.0702L620.17 36.0802Z" fill="#161616"/>
<path d="M646.589 2.3501H654.089V23.9801H665.969V30.4601H654.089V82.2301H646.589V30.4601H636.359V23.9801H646.589V2.3501Z" fill="#161616"/>
<path d="M681.73 23.9802H689.23V51.1702C689.23 57.8102 689.59 62.3802 690.3 64.8802C691.37 68.4502 693.42 71.2702 696.44 73.3402C699.46 75.4102 703.06 76.4402 707.25 76.4402C711.44 76.4402 714.971 75.4402 717.891 73.4102C720.811 71.3902 722.82 68.7502 723.92 65.4602C724.67 63.2202 725.05 58.4502 725.05 51.1602V23.9702H732.711V52.5602C732.711 60.5902 731.771 66.6402 729.901 70.7102C728.031 74.7802 725.21 77.9702 721.44 80.2702C717.68 82.5802 712.951 83.7202 707.281 83.7202C701.611 83.7202 696.87 82.5702 693.07 80.2702C689.27 77.9702 686.43 74.7602 684.56 70.6402C682.69 66.5102 681.75 60.3102 681.75 52.0402V23.9802H681.73Z" fill="#161616"/>
<path d="M752 23.98H759.66V32.49C761.95 29.13 764.35 26.63 766.89 24.97C769.43 23.31 772.07 22.48 774.81 22.48C776.88 22.48 779.1 23.14 781.45 24.46L777.55 30.78C775.97 30.11 774.66 29.77 773.59 29.77C771.09 29.77 768.68 30.79 766.36 32.84C764.03 34.9 762.27 38.08 761.06 42.4C760.14 45.72 759.67 52.43 759.67 62.53V82.23H752.01V23.98H752Z" fill="#161616"/>
<path d="M842.329 62.9L848.649 66.22C846.579 70.29 844.189 73.57 841.469 76.07C838.749 78.56 835.699 80.46 832.309 81.77C828.909 83.08 825.069 83.72 820.779 83.72C811.279 83.72 803.849 80.61 798.499 74.38C793.139 68.16 790.459 61.11 790.459 53.26C790.459 45.87 792.719 39.29 797.269 33.51C803.019 26.16 810.719 22.48 820.359 22.48C829.999 22.48 838.219 26.25 844.149 33.78C848.369 39.1 850.509 45.74 850.579 53.7H798.169C798.309 60.46 800.479 66.01 804.649 70.34C808.819 74.67 813.989 76.83 820.139 76.83C823.109 76.83 825.989 76.31 828.799 75.28C831.609 74.25 833.989 72.88 835.959 71.17C837.919 69.46 840.049 66.71 842.339 62.91L842.329 62.9ZM842.329 47.22C841.329 43.22 839.879 40.03 837.959 37.63C836.039 35.23 833.519 33.32 830.379 31.85C827.229 30.39 823.929 29.66 820.459 29.66C814.739 29.66 809.819 31.49 805.719 35.17C802.709 37.85 800.449 41.86 798.909 47.22H842.329Z" fill="#161616"/>
</g>
<defs>
<clipPath id="clip0_1644_53">
<rect width="850.57" height="83.73" fill="white"/>
</clipPath>
</defs>
</svg>
