<svg width="105" height="94" viewBox="0 0 105 94" fill="none" xmlns="http://www.w3.org/2000/svg">
<g clip-path="url(#clip0_1656_26)">
<path d="M0.420624 8.20996L54.3906 8.20996V-3.91006e-05L0.420624 -3.91006e-05V8.20996Z" fill="#FEFEFC"/>
<path d="M54.72 43.2599C54.72 44.7099 54.61 46.1299 54.39 47.5199H8.7C10.64 56.0499 18.26 62.4099 27.37 62.4099C32.1 62.4099 36.42 60.6899 39.77 57.8399L42.33 60.3999L45.56 63.6799C40.72 67.9899 34.35 70.6099 27.37 70.6099C12.26 70.6099 0 58.3599 0 43.2399C0 29.5199 10.09 18.1699 23.26 16.1899V24.5399C15.93 26.1399 10.19 31.9399 8.64 39.2899H46.09C44.54 31.9499 38.8 26.1399 31.48 24.5399V16.1899C44.64 18.1699 54.73 29.5299 54.73 43.2399L54.72 43.2599Z" fill="#FEFEFC"/>
<path d="M104.191 60.93V70.63H54.8105V64.36C54.8105 60.41 55.8705 55.24 74.3205 43.07C93.1305 30.66 93.1905 24.93 93.1005 20.78C93.0105 16.63 91.3105 9.17 79.5005 9.17C67.6905 9.17 65.7405 17.39 65.7405 20.52H56.5905C56.5905 20.52 55.1605 0 79.2105 0C103.261 0 102.341 19.25 102.341 21.45C102.341 23.65 103.101 33.39 88.0205 43.9C72.9405 54.4 67.5205 59.83 67.5205 61.1L104.191 60.93Z" fill="#FEFEFC"/>
<path d="M10.1806 85.1599V93.5999H9.11062V92.1499C8.65062 92.6999 8.15063 93.1199 7.58063 93.3999C7.01063 93.6799 6.39062 93.8199 5.72062 93.8199C4.52062 93.8199 3.51063 93.3899 2.66063 92.5199C1.82063 91.6499 1.39062 90.5999 1.39062 89.3599C1.39062 88.1199 1.82063 87.1099 2.67063 86.2399C3.52063 85.3799 4.55063 84.9399 5.75063 84.9399C6.44063 84.9399 7.07063 85.0899 7.63063 85.3799C8.19063 85.6699 8.68062 86.1199 9.11062 86.7099V85.1599H10.1806ZM5.84063 85.9899C5.24063 85.9899 4.68063 86.1399 4.17063 86.4399C3.66063 86.7399 3.25063 87.1499 2.95063 87.6899C2.65063 88.2299 2.50063 88.7999 2.50063 89.3899C2.50063 89.9799 2.65063 90.5499 2.96063 91.0999C3.26063 91.6399 3.67063 92.0599 4.19063 92.3699C4.70063 92.6699 5.26063 92.8199 5.84063 92.8199C6.42063 92.8199 7.00063 92.6699 7.53063 92.3699C8.06063 92.0699 8.47063 91.6599 8.76063 91.1499C9.05063 90.6399 9.19062 90.0599 9.19062 89.4199C9.19062 88.4399 8.87062 87.6299 8.23062 86.9699C7.59062 86.3099 6.80063 85.9899 5.86063 85.9899H5.84063Z" fill="#FEFEFC"/>
<path d="M13.0098 85.1599H14.1198V86.3899C14.4498 85.8999 14.7998 85.5399 15.1698 85.2999C15.5398 85.0599 15.9198 84.9399 16.3198 84.9399C16.6198 84.9399 16.9398 85.0399 17.2798 85.2299L16.7098 86.1499C16.4798 86.0499 16.2898 85.9999 16.1398 85.9999C15.7798 85.9999 15.4298 86.1499 15.0898 86.4499C14.7498 86.7499 14.4998 87.2099 14.3198 87.8299C14.1898 88.3099 14.1198 89.2799 14.1198 90.7499V93.5999H13.0098V85.1599Z" fill="#FEFEFC"/>
<path d="M27.1813 86.9102L26.3213 87.4502C25.5813 86.4602 24.5613 85.9702 23.2813 85.9702C22.2513 85.9702 21.4013 86.3002 20.7213 86.9602C20.0413 87.6202 19.7013 88.4202 19.7013 89.3702C19.7013 89.9802 19.8613 90.5602 20.1713 91.1102C20.4813 91.6502 20.9113 92.0702 21.4613 92.3702C22.0013 92.6702 22.6213 92.8202 23.2913 92.8202C24.5313 92.8202 25.5413 92.3302 26.3313 91.3402L27.1913 91.9102C26.7913 92.5202 26.2413 92.9902 25.5713 93.3202C24.9013 93.6502 24.1213 93.8202 23.2513 93.8202C21.9213 93.8202 20.8113 93.4002 19.9313 92.5502C19.0513 91.7002 18.6113 90.6702 18.6113 89.4602C18.6113 88.6402 18.8213 87.8802 19.2313 87.1802C19.6413 86.4802 20.2113 85.9302 20.9313 85.5402C21.6513 85.1502 22.4513 84.9502 23.3413 84.9502C23.9013 84.9502 24.4413 85.0402 24.9613 85.2102C25.4813 85.3802 25.9213 85.6002 26.2813 85.8802C26.6413 86.1502 26.9513 86.5002 27.2013 86.9302L27.1813 86.9102Z" fill="#FEFEFC"/>
<path d="M30.0608 81.9004H31.1508V86.6704C31.5908 86.0904 32.0708 85.6604 32.6008 85.3704C33.1308 85.0804 33.7008 84.9404 34.3108 84.9404C34.9208 84.9404 35.5008 85.1004 35.9908 85.4204C36.4808 85.7404 36.8408 86.1704 37.0708 86.7104C37.3008 87.2504 37.4208 88.1004 37.4208 89.2504V93.5904H36.3308V89.5604C36.3308 88.5904 36.2908 87.9404 36.2108 87.6104C36.0808 87.0504 35.8308 86.6304 35.4808 86.3504C35.1308 86.0704 34.6608 85.9304 34.0908 85.9304C33.4308 85.9304 32.8408 86.1504 32.3308 86.5804C31.8208 87.0104 31.4708 87.5504 31.3008 88.1904C31.2008 88.6004 31.1408 89.3704 31.1408 90.4904V93.5804H30.0508V81.8804L30.0608 81.9004Z" fill="#FEFEFC"/>
<path d="M40.921 81.6802C41.171 81.6802 41.381 81.7702 41.551 81.9402C41.721 82.1202 41.811 82.3302 41.811 82.5802C41.811 82.8302 41.721 83.0302 41.551 83.2102C41.371 83.3902 41.161 83.4702 40.921 83.4702C40.681 83.4702 40.471 83.3802 40.301 83.2102C40.121 83.0302 40.041 82.8302 40.041 82.5802C40.041 82.3302 40.131 82.1202 40.301 81.9402C40.471 81.7602 40.681 81.6802 40.921 81.6802ZM40.381 85.1602H41.471V93.6002H40.381V85.1602Z" fill="#FEFEFC"/>
<path d="M45.4605 82.02H46.5505V85.15H48.2705V86.09H46.5505V93.59H45.4605V86.09H43.9805V85.15H45.4605V82.02Z" fill="#FEFEFC"/>
<path d="M57.8013 90.7899L58.7213 91.2699C58.4213 91.8599 58.0713 92.3399 57.6813 92.6999C57.2913 93.0599 56.8412 93.3399 56.3512 93.5299C55.8612 93.7199 55.3013 93.8099 54.6813 93.8099C53.3013 93.8099 52.2313 93.3599 51.4513 92.4599C50.6713 91.5599 50.2812 90.5399 50.2812 89.3999C50.2812 88.3299 50.6113 87.3799 51.2713 86.5399C52.1013 85.4699 53.2213 84.9399 54.6213 84.9399C56.0213 84.9399 57.2113 85.4899 58.0713 86.5799C58.6813 87.3499 58.9913 88.3099 59.0013 89.4699H51.4113C51.4313 90.4499 51.7412 91.2499 52.3512 91.8799C52.9612 92.5099 53.7013 92.8199 54.5913 92.8199C55.0213 92.8199 55.4413 92.7399 55.8413 92.5999C56.2413 92.4599 56.5913 92.2499 56.8813 92.0099C57.1613 91.7599 57.4713 91.3599 57.8013 90.8099V90.7899ZM57.8013 88.5199C57.6613 87.9399 57.4412 87.4799 57.1712 87.1299C56.9012 86.7799 56.5313 86.5099 56.0713 86.2899C55.6113 86.0799 55.1413 85.9699 54.6313 85.9699C53.8013 85.9699 53.0913 86.2399 52.4913 86.7699C52.0513 87.1599 51.7313 87.7399 51.5013 88.5199H57.7913H57.8013Z" fill="#FEFEFC"/>
<path d="M69.9997 86.9102L69.1397 87.4502C68.3997 86.4602 67.3797 85.9702 66.0997 85.9702C65.0697 85.9702 64.2197 86.3002 63.5397 86.9602C62.8597 87.6202 62.5197 88.4202 62.5197 89.3702C62.5197 89.9802 62.6797 90.5602 62.9897 91.1102C63.2997 91.6502 63.7297 92.0702 64.2797 92.3702C64.8197 92.6702 65.4397 92.8202 66.1097 92.8202C67.3497 92.8202 68.3597 92.3302 69.1497 91.3402L70.0097 91.9102C69.6097 92.5202 69.0597 92.9902 68.3897 93.3202C67.7197 93.6502 66.9397 93.8202 66.0697 93.8202C64.7397 93.8202 63.6297 93.4002 62.7497 92.5502C61.8697 91.7002 61.4297 90.6702 61.4297 89.4602C61.4297 88.6402 61.6397 87.8802 62.0497 87.1802C62.4597 86.4802 63.0297 85.9302 63.7497 85.5402C64.4697 85.1502 65.2697 84.9502 66.1597 84.9502C66.7197 84.9502 67.2597 85.0402 67.7797 85.2102C68.2997 85.3802 68.7397 85.6002 69.0997 85.8802C69.4597 86.1502 69.7697 86.5002 70.0197 86.9302L69.9997 86.9102Z" fill="#FEFEFC"/>
<path d="M73.8316 82.02H74.9216V85.15H76.6416V86.09H74.9216V93.59H73.8316V86.09H72.3516V85.15H73.8316V82.02Z" fill="#FEFEFC"/>
<path d="M78.9199 85.1602H80.0099V89.1002C80.0099 90.0602 80.0599 90.7201 80.1699 91.0901C80.3299 91.6101 80.6199 92.0202 81.0599 92.3202C81.4999 92.6202 82.0199 92.7701 82.6299 92.7701C83.2399 92.7701 83.7499 92.6202 84.1699 92.3302C84.5899 92.0402 84.8799 91.6502 85.0399 91.1802C85.1499 90.8502 85.1999 90.1602 85.1999 89.1102V85.1702H86.3099V89.3102C86.3099 90.4702 86.1699 91.3502 85.8999 91.9402C85.6299 92.5302 85.2199 92.9902 84.6699 93.3202C84.1299 93.6502 83.4399 93.8202 82.6199 93.8202C81.7999 93.8202 81.1099 93.6502 80.5599 93.3202C80.0099 92.9902 79.5999 92.5202 79.3299 91.9202C79.0599 91.3202 78.9199 90.4202 78.9199 89.2202V85.1602Z" fill="#FEFEFC"/>
<path d="M89.1016 85.1599H90.2116V86.3899C90.5416 85.8999 90.8916 85.5399 91.2616 85.2999C91.6316 85.0599 92.0116 84.9399 92.4116 84.9399C92.7116 84.9399 93.0316 85.0399 93.3716 85.2299L92.8016 86.1499C92.5716 86.0499 92.3816 85.9999 92.2316 85.9999C91.8716 85.9999 91.5216 86.1499 91.1816 86.4499C90.8416 86.7499 90.5916 87.2099 90.4116 87.8299C90.2816 88.3099 90.2116 89.2799 90.2116 90.7499V93.5999H89.1016V85.1599Z" fill="#FEFEFC"/>
<path d="M102.18 90.7899L103.1 91.2699C102.8 91.8599 102.45 92.3399 102.06 92.6999C101.67 93.0599 101.22 93.3399 100.73 93.5299C100.24 93.7199 99.6802 93.8099 99.0602 93.8099C97.6802 93.8099 96.6102 93.3599 95.8302 92.4599C95.0502 91.5599 94.6602 90.5399 94.6602 89.3999C94.6602 88.3299 94.9902 87.3799 95.6502 86.5399C96.4802 85.4699 97.6002 84.9399 99.0002 84.9399C100.4 84.9399 101.59 85.4899 102.45 86.5799C103.06 87.3499 103.37 88.3099 103.38 89.4699H95.7902C95.8102 90.4499 96.1202 91.2499 96.7302 91.8799C97.3402 92.5099 98.0802 92.8199 98.9702 92.8199C99.4002 92.8199 99.8202 92.7399 100.22 92.5999C100.62 92.4599 100.97 92.2499 101.26 92.0099C101.54 91.7599 101.85 91.3599 102.18 90.8099V90.7899ZM102.18 88.5199C102.04 87.9399 101.82 87.4799 101.55 87.1299C101.28 86.7799 100.91 86.5099 100.45 86.2899C99.9901 86.0799 99.5202 85.9699 99.0102 85.9699C98.1802 85.9699 97.4702 86.2399 96.8702 86.7699C96.4302 87.1599 96.1101 87.7399 95.8801 88.5199H102.17H102.18Z" fill="#FEFEFC"/>
</g>
<defs>
<clipPath id="clip0_1656_26">
<rect width="104.19" height="93.81" fill="white"/>
</clipPath>
</defs>
</svg>
